<svg width="56" height="56" viewBox="0 0 56 56" fill="none" xmlns="http://www.w3.org/2000/svg">
<g filter="url(#filter0_ii_1332_19)">
<rect width="56" height="56" rx="14" fill="url(#paint0_linear_1332_19)"/>
</g>
<g filter="url(#filter1_ii_1332_19)">
<path d="M33.242 8.10547C33.242 8.10547 33.6946 21.7097 37.0682 23.8826C40.4417 26.0554 48.6315 26.1364 48.6315 26.1364C48.6315 26.1364 40.8944 27.4888 37.0682 30.6442C33.242 33.7996 33.242 46.4213 33.242 46.4213C33.242 46.4213 32.7894 33.8806 29.6209 30.6442C26.4525 27.4078 16.9473 26.1364 16.9473 26.1364C16.9473 26.1364 25.9999 26.0554 29.6209 23.8826C33.242 21.7097 33.242 8.10547 33.242 8.10547Z" fill="#FBDD3B"/>
</g>
<g filter="url(#filter2_ii_1332_19)">
<path d="M14.1892 8.10547C14.1892 8.10547 14.3787 14.1227 15.7909 15.0838C17.2031 16.0449 20.6313 16.0807 20.6313 16.0807C20.6313 16.0807 17.3925 16.6788 15.7909 18.0745C14.1892 19.4702 14.1892 25.0528 14.1892 25.0528C14.1892 25.0528 13.9997 19.506 12.6734 18.0745C11.3471 16.643 7.36816 16.0807 7.36816 16.0807C7.36816 16.0807 11.1576 16.0449 12.6734 15.0838C14.1892 14.1227 14.1892 8.10547 14.1892 8.10547Z" fill="#FBDD3B"/>
</g>
<g filter="url(#filter3_ii_1332_19)">
<path d="M20.4627 30.2109C20.4627 30.2109 20.6627 36.2282 22.1533 37.1893C23.644 38.1503 27.2627 38.1862 27.2627 38.1862C27.2627 38.1862 23.844 38.7843 22.1533 40.18C20.4627 41.5756 20.4627 47.1583 20.4627 47.1583C20.4627 47.1583 20.2627 41.6115 18.8627 40.18C17.4627 38.7485 13.2627 38.1862 13.2627 38.1862C13.2627 38.1862 17.2627 38.1503 18.8627 37.1893C20.4627 36.2282 20.4627 30.2109 20.4627 30.2109Z" fill="#FBDD3B"/>
</g>
<defs>
<filter id="filter0_ii_1332_19" x="-2" y="-2" width="60" height="60" filterUnits="userSpaceOnUse" color-interpolation-filters="sRGB">
<feFlood flood-opacity="0" result="BackgroundImageFix"/>
<feBlend mode="normal" in="SourceGraphic" in2="BackgroundImageFix" result="shape"/>
<feColorMatrix in="SourceAlpha" type="matrix" values="0 0 0 0 0 0 0 0 0 0 0 0 0 0 0 0 0 0 127 0" result="hardAlpha"/>
<feOffset dx="2" dy="2"/>
<feGaussianBlur stdDeviation="4"/>
<feComposite in2="hardAlpha" operator="arithmetic" k2="-1" k3="1"/>
<feColorMatrix type="matrix" values="0 0 0 0 1 0 0 0 0 1 0 0 0 0 1 0 0 0 0.5 0"/>
<feBlend mode="normal" in2="shape" result="effect1_innerShadow_1332_19"/>
<feColorMatrix in="SourceAlpha" type="matrix" values="0 0 0 0 0 0 0 0 0 0 0 0 0 0 0 0 0 0 127 0" result="hardAlpha"/>
<feOffset dx="-2" dy="-2"/>
<feGaussianBlur stdDeviation="4"/>
<feComposite in2="hardAlpha" operator="arithmetic" k2="-1" k3="1"/>
<feColorMatrix type="matrix" values="0 0 0 0 0 0 0 0 0 0 0 0 0 0 0 0 0 0 0.5 0"/>
<feBlend mode="normal" in2="effect1_innerShadow_1332_19" result="effect2_innerShadow_1332_19"/>
</filter>
<filter id="filter1_ii_1332_19" x="15.9473" y="7.10547" width="34.6846" height="41.3164" filterUnits="userSpaceOnUse" color-interpolation-filters="sRGB">
<feFlood flood-opacity="0" result="BackgroundImageFix"/>
<feBlend mode="normal" in="SourceGraphic" in2="BackgroundImageFix" result="shape"/>
<feColorMatrix in="SourceAlpha" type="matrix" values="0 0 0 0 0 0 0 0 0 0 0 0 0 0 0 0 0 0 127 0" result="hardAlpha"/>
<feOffset dx="-1" dy="-1"/>
<feGaussianBlur stdDeviation="2"/>
<feComposite in2="hardAlpha" operator="arithmetic" k2="-1" k3="1"/>
<feColorMatrix type="matrix" values="0 0 0 0 0.909804 0 0 0 0 0.596078 0 0 0 0 0.196078 0 0 0 1 0"/>
<feBlend mode="normal" in2="shape" result="effect1_innerShadow_1332_19"/>
<feColorMatrix in="SourceAlpha" type="matrix" values="0 0 0 0 0 0 0 0 0 0 0 0 0 0 0 0 0 0 127 0" result="hardAlpha"/>
<feOffset dx="2" dy="2"/>
<feGaussianBlur stdDeviation="2"/>
<feComposite in2="hardAlpha" operator="arithmetic" k2="-1" k3="1"/>
<feColorMatrix type="matrix" values="0 0 0 0 1 0 0 0 0 0.933333 0 0 0 0 0.596078 0 0 0 1 0"/>
<feBlend mode="normal" in2="effect1_innerShadow_1332_19" result="effect2_innerShadow_1332_19"/>
</filter>
<filter id="filter2_ii_1332_19" x="6.36816" y="7.10547" width="15.2627" height="18.9492" filterUnits="userSpaceOnUse" color-interpolation-filters="sRGB">
<feFlood flood-opacity="0" result="BackgroundImageFix"/>
<feBlend mode="normal" in="SourceGraphic" in2="BackgroundImageFix" result="shape"/>
<feColorMatrix in="SourceAlpha" type="matrix" values="0 0 0 0 0 0 0 0 0 0 0 0 0 0 0 0 0 0 127 0" result="hardAlpha"/>
<feOffset dx="-1" dy="-1"/>
<feGaussianBlur stdDeviation="2"/>
<feComposite in2="hardAlpha" operator="arithmetic" k2="-1" k3="1"/>
<feColorMatrix type="matrix" values="0 0 0 0 0.909804 0 0 0 0 0.596078 0 0 0 0 0.196078 0 0 0 1 0"/>
<feBlend mode="normal" in2="shape" result="effect1_innerShadow_1332_19"/>
<feColorMatrix in="SourceAlpha" type="matrix" values="0 0 0 0 0 0 0 0 0 0 0 0 0 0 0 0 0 0 127 0" result="hardAlpha"/>
<feOffset dx="1" dy="1"/>
<feGaussianBlur stdDeviation="2"/>
<feComposite in2="hardAlpha" operator="arithmetic" k2="-1" k3="1"/>
<feColorMatrix type="matrix" values="0 0 0 0 1 0 0 0 0 0.933333 0 0 0 0 0.596078 0 0 0 1 0"/>
<feBlend mode="normal" in2="effect1_innerShadow_1332_19" result="effect2_innerShadow_1332_19"/>
</filter>
<filter id="filter3_ii_1332_19" x="12.2627" y="29.2109" width="16" height="18.9492" filterUnits="userSpaceOnUse" color-interpolation-filters="sRGB">
<feFlood flood-opacity="0" result="BackgroundImageFix"/>
<feBlend mode="normal" in="SourceGraphic" in2="BackgroundImageFix" result="shape"/>
<feColorMatrix in="SourceAlpha" type="matrix" values="0 0 0 0 0 0 0 0 0 0 0 0 0 0 0 0 0 0 127 0" result="hardAlpha"/>
<feOffset dx="-1" dy="-1"/>
<feGaussianBlur stdDeviation="2"/>
<feComposite in2="hardAlpha" operator="arithmetic" k2="-1" k3="1"/>
<feColorMatrix type="matrix" values="0 0 0 0 0.909804 0 0 0 0 0.596078 0 0 0 0 0.196078 0 0 0 1 0"/>
<feBlend mode="normal" in2="shape" result="effect1_innerShadow_1332_19"/>
<feColorMatrix in="SourceAlpha" type="matrix" values="0 0 0 0 0 0 0 0 0 0 0 0 0 0 0 0 0 0 127 0" result="hardAlpha"/>
<feOffset dx="1" dy="1"/>
<feGaussianBlur stdDeviation="2"/>
<feComposite in2="hardAlpha" operator="arithmetic" k2="-1" k3="1"/>
<feColorMatrix type="matrix" values="0 0 0 0 1 0 0 0 0 0.933333 0 0 0 0 0.596078 0 0 0 1 0"/>
<feBlend mode="normal" in2="effect1_innerShadow_1332_19" result="effect2_innerShadow_1332_19"/>
</filter>
<linearGradient id="paint0_linear_1332_19" x1="18.2532" y1="9.92191e-07" x2="56" y2="50.3683" gradientUnits="userSpaceOnUse">
<stop stop-color="#8245EE"/>
<stop offset="1" stop-color="#A282F8"/>
</linearGradient>
</defs>
</svg>
